<svg id="multi-lingual" height="48" viewBox="0 0 64 64" width="48" xmlns="http://www.w3.org/2000/svg"><g fill="#0066ff"><path d="m24.86768 29.29346c-6.23064.19814-6.22968 9.23284.0001 9.43018 6.23171-.19813 6.22976-9.23311-.0001-9.43018zm0 7.43017a2.71526 2.71526 0 0 1 .00008-5.43017 2.71526 2.71526 0 0 1 -.00008 5.43017z"/><path d="m37.15283 29.29346c-6.23131.198-6.23036 9.233.00011 9.43018 6.23106-.19827 6.22906-9.23297-.00011-9.43018zm0 7.43017a2.71525 2.71525 0 0 1 .00008-5.43017 2.71525 2.71525 0 0 1 -.00008 5.43017z"/><path d="m49.4375 29.29346c-6.23063.19814-6.22968 9.23284.0001 9.43018 6.23171-.19813 6.22976-9.23311-.0001-9.43018zm0 7.43017a2.71526 2.71526 0 0 1 .00008-5.43017 2.71526 2.71526 0 0 1 -.00008 5.43017z"/><path d="m54.56787 18.69727h-34.83057a5.65657 5.65657 0 0 0 -5.6499 5.65039v19.32177a5.65657 5.65657 0 0 0 5.6499 5.65039h16.28907a6.3055 6.3055 0 0 1 4.62549 2.02832l7.18164 7.79886a2.63438 2.63438 0 0 0 4.57226-1.78467v-6.05325a2.00756 2.00756 0 0 1 2.16212-1.98924 5.6567 5.6567 0 0 0 5.65038-5.65041v-19.32177a5.65667 5.65667 0 0 0 -5.65039-5.65039zm3.65039 24.97216a3.66487 3.66487 0 0 1 -3.82276 3.65038 3.99387 3.99387 0 0 0 -3.98974 3.98927v6.05322a.63475.63475 0 0 1 -1.10156.42969l-7.18115-7.79834a8.31079 8.31079 0 0 0 -6.09668-2.67383h-16.28907a3.65428 3.65428 0 0 1 -3.6499-3.65039v-19.32177a3.65428 3.65428 0 0 1 3.6499-3.65039h34.83057a3.65469 3.65469 0 0 1 3.65039 3.65039z"/><path d="m9.43164 32.61963a3.65387 3.65387 0 0 1 -3.6499-3.6499v-19.31983a3.65387 3.65387 0 0 1 3.6499-3.6499h34.83106a3.65387 3.65387 0 0 1 3.6499 3.6499v3.03174a1 1 0 1 0 2 0v-3.03174a5.65647 5.65647 0 0 0 -5.6499-5.6499h-34.83106a5.65647 5.65647 0 0 0 -5.6499 5.6499v19.31983a5.65647 5.65647 0 0 0 5.6499 5.6499 1 1 0 1 0 0-2z"/></g></svg>