<svg id="automation-orchestration" width="48" height="48" viewBox="0 0 64 64" xmlns="http://www.w3.org/2000/svg"><g fill="#0066ff"><path d="m55 7.16113c-5.95859-.00549-46 0-46 0a5.00589 5.00589 0 0 0 -5 5v39.67871a5.00588 5.00588 0 0 0 5 5c4.55116.00221 42.59215-.00158 46 0a5.0059 5.0059 0 0 0 5-5v-39.67871a5.00589 5.00589 0 0 0 -5-5zm3 5v4.8916h-21.1875a.9947.9947 0 0 1 -.69727-.2832l-2.83593-2.76074a2.98243 2.98243 0 0 0 -2.0918-.84961h-7.6875v-3.998h31.5a3.00328 3.00328 0 0 1 3 2.99995zm-42.5.998v-3.998h6v3.998zm-6.5-3.998h4.5v3.998h-7.5v-.998a3.00328 3.00328 0 0 1 3-3zm7.05371 45.02637c-.35967-.95363 1.06664-1.1151 1.68652-1.45315a2.68634 2.68634 0 0 0 1.666-2.7158 11.31722 11.31722 0 0 1 .001-2.09765 2.71558 2.71558 0 0 0 -1.65332-2.70508l-1.30176-.54a.70932.70932 0 0 1 -.37792-.92285l.97948-2.36035a.70871.70871 0 0 1 .92578-.37793l1.29785.53515c2.07811.9216 3.21067-1.02255 4.55756-2.19545a2.66726 2.66726 0 0 0 .76178-3.0897l-.5332-1.31641a.70738.70738 0 0 1 .375-.92285l2.374-.97168c.95652-.35693 1.113 1.06376 1.45316 1.68652a2.69057 2.69057 0 0 0 2.71579 1.666 11.23286 11.23286 0 0 1 2.09765.001 2.71238 2.71238 0 0 0 2.70508-1.65332c.16644-.2834.5047-1.59842.91989-1.68066a.72516.72516 0 0 1 .543.001c.00726.00458 2.35358.97555 2.36033.97949.93593.42864.03793 1.55413-.15718 2.22365-.9181 2.102 1.01654 3.19453 2.19541 4.55754a2.66759 2.66759 0 0 0 3.08972.76178l1.31641-.5332a.71024.71024 0 0 1 .92285.375l.97168 2.374a.6944.6944 0 0 1 -.002.53613c-.088.4151-1.37449.73558-1.68456.917a2.68629 2.68629 0 0 0 -1.666 2.71578 11.31725 11.31725 0 0 1 -.001 2.09765 2.71558 2.71558 0 0 0 1.65332 2.70508l1.30176.54a.69816.69816 0 0 1 .37891.37988c.19174.34672-.14515.8173-.24552 1.13578h-7.57748c4.79514-6.42461-.07161-15.94648-8.10393-15.83975-8.03063-.10852-12.89977 9.41877-8.10335 15.83982l-7.57556-.00008zm10.50275.65234c-5.31166-4.79474-1.715-13.92381 5.44372-13.83976 7.1579-.08331 10.75586 9.04529 5.44317 13.83982zm28.44354 0h-5.17389a2.69956 2.69956 0 0 0 -1.51266-3.36327l-1.28611-.53419a.706.706 0 0 1 -.4414-.68847 13.36847 13.36847 0 0 0 .001-2.44532.698.698 0 0 1 .43653-.69433l1.291-.53614a2.71206 2.71206 0 0 0 1.48142-3.52735l-.97165-2.374a2.70946 2.70946 0 0 0 -3.5293-1.46387l-1.32619.5371a.68867.68867 0 0 1 -.794-.2041 14.60614 14.60614 0 0 0 -1.68066-1.69043.69028.69028 0 0 1 -.19922-.80469l.53906-1.30859a2.7057 2.7057 0 0 0 -.84375-3.164v-4.1778h3.15052a4.00085 4.00085 0 1 0 .00244-2h-3.153a2.00261 2.00261 0 0 0 -2 2v3.23181l-.97753-.40564a2.71827 2.71827 0 0 0 -3.53613 1.46l-.53419 1.28611a.712.712 0 0 1 -.68847.4414 13.19616 13.19616 0 0 0 -2.44532-.001c-.74582.1058-.91926-1.14941-1.2305-1.72754a2.71123 2.71123 0 0 0 -3.52732-1.48142l-.9912.40567v-3.20939a2.0026 2.0026 0 0 0 -2-2h-2.69876a3.99921 3.99921 0 1 0 .00244 2h2.69641v4.14783a2.70215 2.70215 0 0 0 -.84668 3.15686c.2305.74741.94659 1.63863.333 2.1201a14.6065 14.6065 0 0 0 -1.69045 1.68068.68572.68572 0 0 1 -.80469.19922l-1.30856-.53908a2.71007 2.71007 0 0 0 -3.53614 1.461c-.41358 1.18527-1.67368 3.13412-.98138 4.43063a2.68 2.68 0 0 0 1.46185 1.46586c.5511.2989 1.81068.47814 1.72754 1.22263a13.36869 13.36869 0 0 0 -.001 2.44534.698.698 0 0 1 -.43653.69433c-.99926.39164-2.38508.85355-2.76454 1.9922a2.66326 2.66326 0 0 0 -.04021 1.9619h-5.17178a3.00328 3.00328 0 0 1 -3-3v-36.68071h25.1875a.99475.99475 0 0 1 .69727.2832l2.83593 2.76074a2.98239 2.98239 0 0 0 2.0918.84961h21.1875v32.78711a3.00328 3.00328 0 0 1 -3 3zm-7-29.43554a2.00021 2.00021 0 0 1 -.00009 4 2.00021 2.00021 0 0 1 .00009-4zm-29.49713 2.01031a1.99977 1.99977 0 0 1 -3.999-.0104 1.99977 1.99977 0 0 1 3.999.0104z"/><path d="m41.75 14.10706a1.00019 1.00019 0 0 0 -.00006-2 1.00019 1.00019 0 0 0 .00006 2z"/><path d="m47.5 14.10706a1.00019 1.00019 0 0 0 -.00006-2 1.00019 1.00019 0 0 0 .00006 2z"/><path d="m53.25 14.10706a1.00019 1.00019 0 0 0 -.00006-2 1.00019 1.00019 0 0 0 .00006 2z"/></g></svg>