<svg id="asset-management_9310427" height="64" viewBox="0 0 64 64" width="64" xmlns="http://www.w3.org/2000/svg"><g fill="#0066ff"><path d="m45.69971 25.37793a17.78785 17.78785 0 0 0 -1.17627-2.48293.14733.14733 0 0 1 .001-.166l2.99073-3.58789c1.12549-1.35156.811-2.5498.14062-3.2207l-2.82422-2.82373a2.16021 2.16021 0 0 0 -2.90381-.13867l-3.894 3.25439a.16206.16206 0 0 1 -.18945.00586 29.03823 29.03823 0 0 0 -4.4982-1.94026l-.457-5.06561a2.16484 2.16484 0 0 0 -2.13965-1.957h-4.0102a2.15665 2.15665 0 0 0 -2.13916 1.957l-.459 5.08252a26.25 26.25 0 0 0 -4.50141 1.9264.14507.14507 0 0 1 -.16509.00866l-3.58936-3c-1.35107-1.12646-2.54931-.811-3.22021-.14111l-2.83153 2.83155a2.142 2.142 0 0 0 -.13135 2.895l3.27148 3.92432a26.07388 26.07388 0 0 0 -1.82063 4.52839c-.01039.03706-.04359.12348-.1227.13032-1.25683.11426-3.69189.334-5.082.457a2.15965 2.15965 0 0 0 -1.9483 2.13968v4.00976a2.16375 2.16375 0 0 0 1.95654 2.13965l5.06494.457a.15958.15958 0 0 1 .126.11133 26.64488 26.64488 0 0 0 1.8273 4.55714l-3.00017 3.58889a2.27376 2.27376 0 0 0 -.14111 3.2207l2.8315 2.83154a2.14257 2.14257 0 0 0 2.895.13135l3.91357-3.26269a29.29415 29.29415 0 0 0 4.55671 1.82552.13834.13834 0 0 1 .11224.11686l.459 5.07959a2.153 2.153 0 0 0 2.1377 1.94287h4.01025a2.16484 2.16484 0 0 0 2.13965-1.957l.30762-3.41236c9.38708 10.20125 26.82363 3.4663 26.80313-10.562a15.5066 15.5066 0 0 0 -14.30016-15.43534zm-14.34571 24.16455-.457 5.06543a.1557.1557 0 0 1 -.14746.13672h-4.01028a.15833.15833 0 0 1 -.147-.13672l-.45606-5.04834a2.12677 2.12677 0 0 0 -1.59033-1.88672 16.35375 16.35375 0 0 1 -3.89844-1.62158 2.14959 2.14959 0 0 0 -2.4541.19238l-3.91065 3.26026a.15026.15026 0 0 1 -.20361-.00684l-2.84521-2.84424c-.00049-.00146-.01026-.16894.27588-.51269l3-3.58887a2.14885 2.14885 0 0 0 .18652-2.44971 16.03886 16.03886 0 0 1 -1.61963-3.9165 2.14964 2.14964 0 0 0 -1.875-1.57568l-5.06592-.457a.15523.15523 0 0 1 -.13571-.1475v-4.00976a.14686.14686 0 0 1 .126-.14746c1.39013-.12305 3.82715-.34278 5.085-.457a2.14971 2.14971 0 0 0 1.8706-1.59473 15.99709 15.99709 0 0 1 1.61231-3.89307 2.13164 2.13164 0 0 0 -.19287-2.4541l-3.26081-3.91116a.14866.14866 0 0 1 .00733-.20313l2.84375-2.84521c.115-.22306 3.92143 3.19324 4.11085 3.2831a2.13323 2.13323 0 0 0 2.43993.1793 16.37787 16.37787 0 0 1 3.89891-1.62353 2.12236 2.12236 0 0 0 1.59375-1.87061l.45605-5.05127a.16221.16221 0 0 1 .14844-.15088h4.01025a.1557.1557 0 0 1 .14746.13672l.457 5.06592a2.11961 2.11961 0 0 0 1.58887 1.86914 16.33037 16.33037 0 0 1 3.89893 1.62207 2.15213 2.15213 0 0 0 2.46386-.19336l3.90039-3.25977a.15348.15348 0 0 1 .20362.00684l2.8457 2.84375c0 .00146.01026.16943-.27685.51416l-2.9814 3.57716c-1.14638 1.24586-.02658 2.70608.54546 3.92808a15.39872 15.39872 0 0 0 -3.83611.72054c-6.16306-11.257-23.32095-6.96622-23.41194 5.9136a12.464 12.464 0 0 0 12.45015 12.45c.22754 0 .467-.03223.70032-.04541a15.39582 15.39582 0 0 0 2.00518 4.725 2.01539 2.01539 0 0 0 -.09613.41267zm-2.34619-8.729c-.14783.51083.43267 1.69924-.263 1.63679a10.46224 10.46224 0 0 1 -10.45038-10.45027c.06811-10.69553 14.24376-14.39488 19.54075-5.15259a15.5 15.5 0 0 0 -8.82737 13.96607zm15.4961 13.49609a13.51122 13.51122 0 0 1 -13.4961-13.49609c.74119-17.90448 26.25376-17.89923 26.99219.0001a13.51124 13.51124 0 0 1 -13.49609 13.49599z"/><path d="m44.50391 29.11328a11.71326 11.71326 0 0 0 -11.7002 11.7002c.64247 15.52194 22.76028 15.51742 23.40041-.00009a11.71326 11.71326 0 0 0 -11.70021-11.70011zm0 21.40039a9.71127 9.71127 0 0 1 -9.7002-9.70019c.53294-12.86862 18.86941-12.86487 19.40041.00007a9.71128 9.71128 0 0 1 -9.70021 9.70012z"/><path d="m44.49811 37.2171a1.29757 1.29757 0 0 1 1.30609 1.2956 1.00019 1.00019 0 0 0 2-.00007 3.28922 3.28922 0 0 0 -2.30029-3.12548v-1.24555a1.00019 1.00019 0 0 0 -2 .00007v1.24433a3.28986 3.28986 0 0 0 1.00293 6.42749 1.30054 1.30054 0 1 1 -1.30371 1.30023 1 1 0 0 0 -2 .00348 3.28916 3.28916 0 0 0 2.30078 3.12567v1.242a1 1 0 0 0 2 0v-1.24116a3.29153 3.29153 0 0 0 -1.00342-6.43023 1.29836 1.29836 0 0 1 -.00238-2.59638z"/></g></svg>