<svg id="rita" width="48" height="48" viewBox="0 0 32 32" fill="none" xmlns="http://www.w3.org/2000/svg">
<path d="M22.9131 15.5H19.5278V13.9724C19.5274 13.5747 19.3692 13.1934 19.088 12.9122C18.8068 12.631 18.4255 12.4728 18.0278 12.4724H16.5V9.05541H18.0278C18.4255 9.05498 18.8068 8.8968 19.088 8.61559C19.3692 8.33438 19.5274 7.9531 19.5278 7.55541V3.5C19.5274 3.10231 19.3692 2.72103 19.088 2.43982C18.8068 2.15861 18.4255 2.00043 18.0278 2H13.9722C13.5745 2.00043 13.1932 2.15861 12.912 2.43982C12.6308 2.72103 12.4726 3.10231 12.4722 3.5V5.02759H6.90234C6.83668 5.02757 6.77165 5.04049 6.71098 5.06561C6.65031 5.09074 6.59518 5.12756 6.54875 5.174C6.50232 5.22043 6.46549 5.27556 6.44037 5.33623C6.41525 5.3969 6.40233 5.46192 6.40234 5.52759V26.4724C6.40233 26.5381 6.41525 26.6031 6.44037 26.6638C6.46549 26.7244 6.50232 26.7796 6.54875 26.826C6.59518 26.8724 6.65031 26.9093 6.71098 26.9344C6.77165 26.9595 6.83668 26.9724 6.90234 26.9724H12.4722V28.5C12.4726 28.8977 12.6308 29.279 12.912 29.5602C13.1932 29.8414 13.5745 29.9996 13.9722 30H18.0278C18.4255 29.9996 18.8068 29.8414 19.088 29.5602C19.3692 29.279 19.5274 28.8977 19.5278 28.5V26.9724H22.9131C22.9788 26.9724 23.0438 26.9595 23.1044 26.9344C23.1651 26.9093 23.2202 26.8724 23.2667 26.826C23.3131 26.7796 23.3499 26.7244 23.3751 26.6638C23.4002 26.6031 23.4131 26.5381 23.4131 26.4724V16C23.4131 15.9343 23.4002 15.8693 23.3751 15.8086C23.3499 15.748 23.3131 15.6928 23.2667 15.6464C23.2202 15.6 23.1651 15.5631 23.1044 15.538C23.0438 15.5129 22.9788 15.5 22.9131 15.5ZM18.5278 13.9724V18.0276C18.5277 18.1602 18.475 18.2873 18.3812 18.381C18.2875 18.4747 18.1604 18.5275 18.0278 18.5276H13.9722C13.8396 18.5275 13.7125 18.4747 13.6188 18.381C13.525 18.2873 13.4723 18.1602 13.4722 18.0276V13.9724C13.4723 13.8398 13.525 13.7127 13.6188 13.619C13.7125 13.5253 13.8396 13.4725 13.9722 13.4724H18.0278C18.1604 13.4725 18.2875 13.5253 18.3812 13.619C18.475 13.7127 18.5277 13.8398 18.5278 13.9724ZM13.4722 3.5C13.4723 3.36743 13.525 3.24033 13.6188 3.14659C13.7125 3.05285 13.8396 3.00013 13.9722 3H18.0278C18.1604 3.00013 18.2875 3.05285 18.3812 3.14659C18.475 3.24033 18.5277 3.36743 18.5278 3.5V7.55542C18.5277 7.68799 18.475 7.81509 18.3812 7.90883C18.2875 8.00257 18.1604 8.05529 18.0278 8.05542H13.9722C13.8396 8.05529 13.7125 8.00257 13.6188 7.90883C13.525 7.81509 13.4723 7.68799 13.4722 7.55542V3.5ZM18.5278 28.5C18.5277 28.6326 18.475 28.7597 18.3812 28.8534C18.2875 28.9471 18.1604 28.9999 18.0278 29H13.9722C13.8396 28.9999 13.7125 28.9471 13.6188 28.8534C13.525 28.7597 13.4723 28.6326 13.4722 28.5V24.4446C13.4723 24.312 13.525 24.1849 13.6188 24.0912C13.7125 23.9974 13.8396 23.9447 13.9722 23.9446H18.0278C18.1604 23.9447 18.2875 23.9974 18.3812 24.0912C18.475 24.1849 18.5277 24.312 18.5278 24.4446V28.5ZM22.4131 25.9724H19.5278V24.4446C19.5274 24.0469 19.3692 23.6656 19.088 23.3844C18.8068 23.1032 18.4255 22.945 18.0278 22.9446H13.9722C13.5745 22.945 13.1932 23.1032 12.912 23.3844C12.6308 23.6656 12.4726 24.0469 12.4722 24.4446V25.9724H7.40234V6.02759H12.4722V7.55542C12.4726 7.95311 12.6308 8.33439 12.912 8.6156C13.1932 8.89681 13.5745 9.05499 13.9722 9.05542H15.5V12.4724H13.9722C13.5745 12.4729 13.1932 12.631 12.912 12.9122C12.6308 13.1934 12.4726 13.5747 12.4722 13.9724V18.0276C12.4726 18.4253 12.6308 18.8066 12.912 19.0878C13.1932 19.369 13.5745 19.5272 13.9722 19.5276H18.0278C18.4255 19.5272 18.8068 19.369 19.088 19.0878C19.3692 18.8066 19.5274 18.4253 19.5278 18.0276V16.5H22.4131V25.9724Z" fill="#0066FF"/>
</svg>