<svg width="48" height="48" viewBox="0 0 24 24" fill="none" xmlns="http://www.w3.org/2000/svg">
<path d="M17.8335 15.3333V7.41667C17.8335 6.5 17.0835 5.75 16.1668 5.75H11.5835" stroke="#0066FF" stroke-width="1" stroke-linecap="round" stroke-linejoin="round"/>
<path d="M13.6665 3.66669L11.1665 5.75002L13.6665 7.83335" stroke="#0066FF" stroke-width="1" stroke-linecap="round" stroke-linejoin="round"/>
<path d="M17.8335 20.3333C19.2142 20.3333 20.3335 19.214 20.3335 17.8333C20.3335 16.4526 19.2142 15.3333 17.8335 15.3333C16.4528 15.3333 15.3335 16.4526 15.3335 17.8333C15.3335 19.214 16.4528 20.3333 17.8335 20.3333Z" stroke="#0066FF" stroke-width="1" stroke-linecap="round" stroke-linejoin="round"/>
<path d="M6.1665 8.66669V16.5834C6.1665 17.5 6.9165 18.25 7.83317 18.25H12.4165" stroke="#0066FF" stroke-width="1" stroke-linecap="round" stroke-linejoin="round"/>
<path d="M10.3335 20.3334L12.8335 18.25L10.3335 16.1667" stroke="#0066FF" stroke-width="1" stroke-linecap="round" stroke-linejoin="round"/>
<path d="M6.1665 8.66669C7.54722 8.66669 8.6665 7.5474 8.6665 6.16669C8.6665 4.78598 7.54722 3.66669 6.1665 3.66669C4.78579 3.66669 3.6665 4.78598 3.6665 6.16669C3.6665 7.5474 4.78579 8.66669 6.1665 8.66669Z" stroke="#0066FF" stroke-width="1" stroke-linecap="round" stroke-linejoin="round"/>
</svg>